<?xml version="1.0" standalone="no"?>
<!DOCTYPE svg PUBLIC "-//W3C//DTD SVG 20010904//EN"
 "http://www.w3.org/TR/2001/REC-SVG-20010904/DTD/svg10.dtd">
<svg version="1.0" xmlns="http://www.w3.org/2000/svg"
 width="354.000000pt" height="115.000000pt">

<g transform="translate(0.000000,343.000000) scale(0.100000,-0.100000)"
fill="#000000" stroke="none">
<path d="M1133 3410 c-33 -13 -45 -45 -51 -135 l-5 -82 -101 -1 c-70 0 -110
-5 -130 -16 -39 -20 -93 -72 -101 -95 -3 -11 -19 -21 -39 -25 -57 -11 -71 -36
-75 -138 -4 -122 22 -178 86 -178 12 0 24 -8 28 -19 9 -29 55 -72 100 -92 29
-13 64 -19 127 -19 94 0 123 9 180 53 66 53 139 52 208 -2 50 -40 92 -51 184
-51 98 1 156 25 201 88 18 25 38 41 51 41 36 1 72 47 78 99 7 46 1 140 -10
175 -6 19 -53 47 -79 47 -8 0 -15 4 -15 10 0 16 -71 90 -102 106 -18 9 -65 15
-138 16 l-110 2 0 84 c0 79 -2 85 -29 113 -29 28 -32 29 -133 28 -57 0 -113
-4 -125 -9z m206 -74 c7 -9 11 -40 9 -78 l-3 -63 -85 2 c-47 1 -88 2 -92 2
-14 2 -9 139 5 144 29 12 155 7 166 -7z m301 -231 c16 -8 39 -29 52 -47 21
-30 23 -43 23 -155 0 -107 -2 -125 -21 -149 -43 -58 -69 -69 -158 -69 -78 0
-85 2 -137 37 -118 79 -185 76 -315 -17 -43 -31 -158 -34 -213 -5 -61 31 -80
78 -81 199 0 77 4 103 21 139 41 83 35 82 442 82 297 0 363 -3 387 -15z m-920
-206 c0 -51 -4 -78 -10 -74 -17 10 -11 155 6 155 2 0 4 -36 4 -81z m1088 -2
c2 -63 0 -77 -12 -77 -12 0 -15 16 -14 80 1 107 22 104 26 -3z"/>
<path d="M927 2934 c-11 -11 -8 -49 5 -62 16 -16 70 -15 92 1 11 8 17 23 14
38 -3 21 -9 24 -53 27 -28 2 -54 0 -58 -4z"/>
<path d="M2397 2966 c-78 -29 -117 -91 -117 -186 0 -118 66 -192 170 -192 54
0 99 20 130 59 20 26 20 28 4 40 -26 19 -40 16 -70 -12 -81 -75 -190 29 -154
148 15 50 26 66 59 78 24 10 91 -5 91 -19 0 -4 7 -15 14 -24 11 -15 18 -16 45
-7 37 13 37 14 11 56 -34 57 -116 83 -183 59z"/>
<path d="M2640 2965 c-26 -32 13 -81 48 -59 34 22 22 74 -18 74 -10 0 -23 -7
-30 -15z"/>
<path d="M4351 2966 c-8 -10 -11 -26 -7 -42 5 -20 12 -25 33 -22 14 2 31 11
37 21 23 36 -36 76 -63 43z"/>
<path d="M3340 2780 l0 -190 35 0 34 0 3 126 3 126 28 -84 c57 -169 57 -168
87 -168 31 0 30 -3 84 160 20 58 36 101 37 95 1 -5 0 -65 -1 -132 l-2 -123 36
0 36 0 0 190 0 190 -48 0 -47 0 -45 -130 c-25 -71 -48 -126 -51 -122 -4 4 -26
62 -49 130 l-43 122 -48 0 -49 0 0 -190z"/>
<path d="M2846 2849 c-21 -17 -26 -18 -26 -5 0 11 -9 16 -30 16 l-30 0 -1 -95
c-2 -188 -5 -175 31 -175 34 0 32 -4 34 106 1 91 13 114 57 114 40 0 49 -24
49 -129 l0 -91 35 0 35 0 0 111 c0 109 0 111 -29 140 -36 36 -86 39 -125 8z"/>
<path d="M3110 2857 c-67 -34 -90 -134 -48 -208 26 -47 63 -63 130 -57 41 4
57 11 76 34 l25 28 -29 12 c-25 11 -31 10 -47 -7 -23 -25 -62 -24 -87 1 -22
22 -26 49 -7 51 16 1 128 8 150 8 22 1 23 50 1 92 -26 51 -109 74 -164 46z
m94 -53 c31 -31 20 -44 -39 -44 -30 0 -55 4 -55 8 0 16 41 52 60 52 10 0 26
-7 34 -16z"/>
<path d="M3820 2848 c-40 -27 -47 -61 -13 -66 12 -2 31 6 42 17 26 26 46 26
71 1 23 -23 19 -40 -11 -40 -55 0 -111 -24 -130 -54 -49 -79 40 -148 131 -101
27 14 30 14 30 0 0 -10 10 -15 30 -15 l30 0 0 109 c0 100 -2 112 -23 137 -34
39 -109 45 -157 12z m118 -150 c5 -26 -35 -60 -66 -56 -21 2 -28 9 -30 30 -3
23 2 29 30 37 43 12 62 9 66 -11z"/>
<path d="M4099 2855 c-59 -32 -77 -152 -32 -213 27 -36 82 -49 124 -28 40 20
39 20 39 -6 -1 -52 -61 -83 -105 -54 -30 20 -49 20 -64 2 -31 -37 67 -83 142
-66 80 18 90 44 91 237 l1 133 -32 0 c-18 0 -33 -5 -33 -10 0 -6 -13 -4 -30 5
-36 19 -67 19 -101 0z m115 -67 c21 -29 20 -87 -1 -110 -23 -25 -68 -23 -87 4
-36 51 -9 128 44 128 18 0 34 -8 44 -22z"/>
<path d="M4524 2860 c-82 -33 -96 -183 -23 -244 61 -52 189 -22 189 44 0 18
-42 22 -60 5 -24 -22 -67 -22 -88 -1 -21 21 -23 106 -3 129 19 24 67 21 85 -4
11 -16 21 -20 40 -15 14 3 26 11 26 17 0 55 -99 96 -166 69z"/>
<path d="M2630 2725 l0 -135 34 0 c46 0 50 15 41 156 l-7 114 -34 0 -34 0 0
-135z"/>
<path d="M4348 2753 c-4 -155 -3 -163 33 -163 l29 0 0 135 0 135 -29 0 -30 0
-3 -107z"/>
<path d="M672 2458 c-16 -24 -55 -86 -87 -138 -32 -52 -86 -139 -121 -193
-100 -153 -92 -166 89 -143 260 34 593 6 662 -56 16 -14 50 -9 108 17 120 53
404 71 635 40 61 -8 118 -12 126 -9 31 12 26 39 -20 113 -26 42 -64 103 -84
136 -21 33 -67 107 -102 165 l-65 105 -59 -3 c-85 -5 -222 -29 -286 -51 -76
-26 -116 -48 -169 -92 l-47 -39 -32 30 c-76 71 -234 130 -391 145 -35 3 -78 8
-96 11 -28 4 -35 0 -61 -38z m173 -48 c231 -33 370 -117 377 -227 4 -61 30
-79 59 -43 15 17 19 33 15 54 -20 99 187 209 413 218 l65 3 73 -115 c40 -63
73 -118 73 -121 0 -4 -17 -3 -37 2 -65 15 -280 11 -352 -7 -77 -19 -186 -70
-241 -114 l-40 -31 -37 29 c-54 43 -123 79 -201 104 -59 20 -87 23 -245 23
-97 0 -176 3 -175 6 2 3 34 56 73 117 76 124 66 118 180 102z m90 -304 c57
-13 171 -55 150 -55 -5 0 -44 4 -85 10 -89 12 -341 12 -423 0 -100 -14 -81 21
25 44 81 17 256 18 333 1z m944 3 c112 -19 155 -61 49 -47 -92 11 -352 11
-437 -2 -41 -6 -76 -9 -78 -7 -5 6 102 45 152 56 57 13 237 13 314 0z"/>
<path d="M2332 2420 c-27 -11 -36 -32 -28 -65 5 -18 17 -28 47 -37 45 -13 58
-30 39 -53 -17 -21 -36 -19 -61 6 -16 16 -24 18 -32 9 -18 -17 27 -50 68 -50
39 0 65 22 65 55 0 27 -28 49 -73 61 -21 5 -27 12 -25 28 4 28 47 35 65 10 9
-13 16 -15 24 -7 7 7 3 17 -17 32 -29 23 -38 24 -72 11z"/>
<path d="M3404 2411 c-73 -44 -42 -181 41 -181 96 0 128 143 41 184 -43 20
-44 20 -82 -3z m72 -19 c16 -11 34 -48 34 -72 0 -22 -41 -70 -60 -70 -23 0
-60 49 -60 80 0 49 51 86 86 62z"/>
<path d="M3660 2417 c-28 -14 -38 -51 -19 -73 7 -9 30 -23 51 -31 39 -16 47
-30 26 -51 -17 -17 -35 -15 -57 7 -12 12 -23 16 -32 10 -22 -14 26 -49 66 -49
68 0 88 70 30 99 -71 36 -77 42 -64 57 15 18 44 18 63 -2 18 -17 38 -11 30 10
-5 12 -46 36 -62 36 -4 0 -18 -6 -32 -13z"/>
<path d="M2510 2410 c0 -5 14 -10 30 -10 l30 0 0 -85 c0 -69 3 -85 15 -85 12
0 15 16 15 85 0 84 0 85 25 85 14 0 25 5 25 10 0 6 -30 10 -70 10 -40 0 -70
-4 -70 -10z"/>
<path d="M2742 2346 c4 -88 22 -116 75 -116 56 0 73 27 73 115 0 60 -3 75 -15
75 -12 0 -15 -14 -15 -69 0 -50 -4 -74 -16 -85 -20 -21 -30 -20 -54 4 -16 16
-20 33 -20 85 0 53 -3 65 -16 65 -14 0 -16 -11 -12 -74z"/>
<path d="M2992 2328 l3 -93 54 0 c46 1 57 5 77 29 33 38 33 98 -1 131 -20 21
-34 25 -80 25 l-56 0 3 -92z m108 52 c43 -43 14 -120 -46 -120 l-34 0 0 70 0
70 30 0 c17 0 39 -9 50 -20z"/>
<path d="M3240 2325 c0 -78 3 -95 15 -95 12 0 15 17 15 95 0 78 -3 95 -15 95
-12 0 -15 -17 -15 -95z"/>
</g>
</svg>
