<svg version="1.0" xmlns="http://www.w3.org/2000/svg" viewBox="0 0 740 210" preserveAspectRatio="xMidYMid meet">

<g transform="translate(-160,635) scale(0.100000,-0.100000)" stroke="none">
<path d="M2040 6333 c-51 -8 -147 -47 -198 -80 -67 -45 -115 -101 -158 -185 -46 -91 -64 -173 -64 -293 0 -176 45 -298 148 -400 182 -182 510 -192 699 -21 66 59 121 166 130 249 l6 57 -111 0 -110 0 -7 -32 c-36 -164 -205 -246 -354 -172 -91 46 -143 140 -157 285 -16 166 47 311 161 372 52 28 174 30 221 5 59 -32 98 -80 124 -152 l11 -29 106 7 c59 4 109 9 112 11 2 3 -4 34 -13 69 -53 196 -234 320 -460 315 -34 -1 -72 -4 -86 -6z"/>
<path d="M2720 6234 l0 -84 110 0 111 0 -3 83 -3 82 -107 1 -108 1 0 -83z"/>
<path d="M4820 5790 l0 -530 110 0 110 0 2 367 3 367 104 -289 c57 -160 117 -324 131 -365 l28 -75 92 0 92 0 18 50 c57 156 210 589 226 640 l19 60 3 -377 2 -378 110 0 110 0 0 530 0 530 -164 0 -164 0 -43 -127 c-24 -71 -79 -237 -123 -370 l-81 -242 -124 370 -124 369 -169 0 -168 0 0 -530z"/>
<path d="M7867 6313 c-4 -3 -7 -42 -7 -85 l0 -78 110 0 110 0 0 85 0 85 -103 0 c-57 0 -107 -3 -110 -7z"/>
<path d="M3413 6034 c-23 -8 -60 -35 -82 -59 l-41 -45 0 50 0 50 -110 0 -110 0 0 -385 0 -385 110 0 109 0 3 259 c3 296 3 296 90 339 82 41 165 5 187 -82 6 -27 11 -139 11 -280 l0 -236 110 0 111 0 -4 293 c-3 239 -6 300 -20 334 -23 61 -56 101 -106 131 -37 22 -59 26 -130 29 -59 2 -99 -2 -128 -13z"/>
<path d="M4161 6036 c-105 -35 -196 -127 -237 -241 -27 -76 -24 -241 6 -318 35 -92 93 -155 184 -202 77 -39 80 -40 185 -40 93 1 113 4 163 27 75 35 140 97 172 164 14 30 26 57 26 59 0 3 -45 5 -100 5 -76 0 -100 -3 -100 -13 0 -36 -93 -87 -157 -87 -44 0 -110 28 -136 58 -22 24 -46 87 -47 120 l0 22 275 0 275 0 0 49 c0 169 -82 317 -209 377 -47 23 -72 28 -156 31 -68 2 -114 -2 -144 -11z m186 -157 c52 -19 92 -68 107 -131 l6 -28 -170 0 -170 0 6 28 c27 110 124 168 221 131z"/>
<path d="M6347 6040 c-111 -28 -193 -110 -212 -213 l-7 -37 94 0 95 0 24 37 c34 53 61 64 146 61 62 -3 77 -7 98 -28 13 -14 27 -39 31 -56 9 -47 -19 -71 -93 -78 -235 -23 -300 -40 -357 -94 -42 -40 -66 -98 -65 -162 1 -103 42 -164 139 -209 44 -20 70 -25 135 -25 95 0 140 14 201 60 45 35 55 40 53 27 -1 -5 -1 -20 0 -35 l1 -28 103 0 102 0 -3 172 c-6 427 -6 430 -29 473 -28 54 -68 89 -128 116 -41 19 -71 23 -170 25 -66 2 -137 -1 -158 -6z m273 -472 c-1 -120 -62 -177 -188 -178 -57 0 -67 3 -93 29 -38 38 -39 80 -1 121 22 26 39 33 97 42 39 6 93 16 120 23 28 7 53 13 58 14 4 0 7 -23 7 -51z"/>
<path d="M7164 6030 c-75 -30 -137 -89 -176 -168 -31 -62 -33 -75 -37 -184 -3 -126 9 -187 55 -259 60 -96 134 -138 255 -146 96 -7 152 11 216 70 l42 39 -5 -54 c-12 -123 -15 -135 -42 -161 -36 -34 -73 -47 -135 -47 -63 0 -117 25 -135 63 -13 27 -13 27 -118 27 l-106 0 7 -32 c17 -76 68 -132 160 -175 56 -26 68 -28 195 -28 128 0 138 2 198 29 83 38 136 98 162 184 19 59 20 93 20 453 l0 389 -100 0 -100 0 0 -45 c0 -25 -3 -45 -6 -45 -3 0 -17 14 -31 30 -42 50 -97 73 -188 77 -63 2 -91 -1 -131 -17z m264 -172 c57 -35 77 -88 77 -203 0 -82 -4 -107 -21 -140 -25 -47 -89 -85 -146 -85 -46 0 -109 30 -130 62 -39 59 -51 181 -28 267 30 112 149 160 248 99z"/>
<path d="M8445 6037 c-194 -64 -301 -252 -268 -468 22 -140 96 -244 210 -296 239 -109 506 8 549 241 6 35 5 38 -10 33 -10 -4 -57 -7 -106 -7 l-87 0 -6 -29 c-21 -105 -175 -146 -262 -70 -48 42 -70 107 -70 204 0 101 23 165 73 203 30 23 45 27 103 27 80 0 112 -19 144 -83 l20 -41 101 -1 102 0 -9 41 c-24 104 -87 181 -189 228 -45 21 -72 26 -155 28 -63 2 -115 -2 -140 -10z"/>
<path d="M2720 5645 l0 -385 110 0 110 0 0 385 0 385 -110 0 -110 0 0 -385z"/>
<path d="M7860 5645 l0 -385 110 0 110 0 0 385 0 385 -110 0 -110 0 0 -385z"/>
<path d="M2675 4884 c-86 -45 -117 -129 -78 -211 21 -44 57 -67 160 -99 120 -38 148 -74 101 -129 -46 -53 -157 -38 -181 25 -10 28 -15 30 -59 30 -41 0 -48 -3 -48 -19 0 -95 105 -168 229 -159 113 8 181 69 181 162 0 94 -42 135 -185 182 -119 39 -141 69 -90 119 18 19 35 25 70 25 35 0 52 -6 70 -25 14 -13 25 -31 25 -40 0 -11 12 -15 51 -15 l52 0 -6 35 c-8 50 -43 94 -91 116 -52 24 -159 25 -201 3z"/>
<path d="M5955 4876 c-85 -39 -137 -112 -154 -214 -37 -228 153 -393 376 -327 73 22 146 90 173 163 45 118 10 270 -79 343 -77 63 -222 79 -316 35z m232 -102 c52 -43 76 -94 76 -164 -1 -81 -36 -146 -97 -177 -38 -20 -124 -19 -163 0 -135 70 -135 295 0 358 61 29 136 22 184 -17z"/>
<path d="M6715 4881 c-22 -10 -47 -27 -56 -37 -24 -28 -42 -92 -36 -129 12 -73 58 -109 191 -149 83 -26 114 -57 99 -102 -7 -21 -20 -33 -51 -44 -59 -20 -121 0 -141 48 -14 30 -18 32 -63 32 -42 0 -48 -3 -48 -20 0 -61 60 -131 128 -150 89 -24 176 -6 236 50 40 38 41 39 41 109 0 64 -3 72 -30 101 -33 35 -83 60 -160 79 -74 18 -95 35 -95 76 0 43 29 65 85 65 46 0 82 -21 95 -56 8 -21 16 -24 56 -24 l47 0 -6 37 c-9 51 -35 84 -87 111 -56 28 -147 30 -205 3z"/>
<path d="M3208 4845 l4 -45 79 0 79 0 0 -235 0 -235 50 0 50 0 0 235 0 235 85 0 85 0 0 45 0 45 -218 0 -217 0 3 -45z"/>
<path d="M3900 4697 c0 -150 4 -204 16 -240 58 -171 330 -187 416 -24 21 39 23 58 26 250 l4 207 -56 0 -56 0 0 -199 0 -199 -26 -31 c-54 -64 -155 -63 -195 3 -17 28 -19 51 -19 229 l0 197 -55 0 -55 0 0 -193z"/>
<path d="M4660 4610 l0 -279 138 2 c128 3 143 5 195 31 105 51 153 141 145 270 -8 120 -67 207 -165 242 -25 8 -87 13 -175 14 l-138 0 0 -280z m280 168 c64 -34 84 -66 88 -148 5 -79 -20 -146 -64 -175 -31 -20 -137 -38 -176 -30 l-28 7 0 184 0 184 68 0 c51 0 79 -6 112 -22z"/>
<path d="M5410 4610 l0 -280 50 0 50 0 0 280 0 280 -50 0 -50 0 0 -280z"/>
</g>
</svg>